<svg width="24" height="24" viewBox="0 0 24 24" fill="none" xmlns="http://www.w3.org/2000/svg">
<path d="M11.9922 20.6094C10.862 20.6094 9.79948 20.3932 8.80469 19.9609C7.8099 19.5339 6.93229 18.9401 6.17188 18.1797C5.41146 17.4245 4.8151 16.5495 4.38281 15.5547C3.95573 14.5599 3.74219 13.4948 3.74219 12.3594C3.74219 11.2292 3.95573 10.1667 4.38281 9.17188C4.8151 8.17708 5.40885 7.29948 6.16406 6.53906C6.92448 5.77865 7.80208 5.1849 8.79688 4.75781C9.79688 4.32552 10.862 4.10938 11.9922 4.10938C13.1224 4.10938 14.1849 4.32552 15.1797 4.75781C16.1797 5.1849 17.0573 5.77865 17.8125 6.53906C18.5729 7.29948 19.1693 8.17708 19.6016 9.17188C20.0339 10.1667 20.25 11.2292 20.25 12.3594C20.25 13.4948 20.0339 14.5599 19.6016 15.5547C19.1693 16.5495 18.5729 17.4245 17.8125 18.1797C17.0573 18.9401 16.1823 19.5339 15.1875 19.9609C14.1927 20.3932 13.1276 20.6094 11.9922 20.6094ZM10.1719 16.3906C10.3125 16.526 10.5026 16.5938 10.7422 16.5938C10.987 16.5885 11.1849 16.513 11.3359 16.3672L14.5625 13.3516C14.75 13.1745 14.8724 12.9661 14.9297 12.7266C14.9922 12.487 14.9922 12.2474 14.9297 12.0078C14.8724 11.7682 14.75 11.5625 14.5625 11.3906L11.3359 8.375C11.1693 8.21875 10.974 8.14062 10.75 8.14062C10.5312 8.13542 10.3464 8.20573 10.1953 8.35156C10.0234 8.50781 9.9349 8.70573 9.92969 8.94531C9.92448 9.17969 10.0052 9.375 10.1719 9.53125L13.2109 12.3672L10.1719 15.2109C10.0104 15.3672 9.92708 15.5599 9.92188 15.7891C9.91667 16.0182 10 16.2188 10.1719 16.3906Z" fill="#F5F6F6"/>
</svg>
