<svg width="40" height="40" viewBox="0 0 40 40" fill="none" xmlns="http://www.w3.org/2000/svg">
<path d="M20 32.9141C19.1953 32.9141 18.4102 32.8359 17.6445 32.6797C16.8789 32.5312 16.1406 32.3164 15.4297 32.0352C15.8125 31.6367 16.1445 31.2031 16.4258 30.7344C16.707 30.2656 16.9141 29.8047 17.0469 29.3516C17.5078 29.5156 17.9922 29.6406 18.5 29.7266C19.0156 29.8125 19.5117 29.8555 19.9883 29.8555C20.8633 29.8555 21.7109 29.7344 22.5312 29.4922C23.3594 29.2578 24.1328 28.9219 24.8516 28.4844C25.5703 28.0469 26.2109 27.5234 26.7734 26.9141C26.3203 26.4453 25.7578 26.0195 25.0859 25.6367C24.4141 25.2539 23.6484 24.9531 22.7891 24.7344C21.9375 24.5156 21.0039 24.4062 19.9883 24.4062C19.4961 24.4062 19.0273 24.4336 18.582 24.4883C18.1445 24.5352 17.7188 24.6094 17.3047 24.7109C17.0234 23.5859 16.5078 22.5742 15.7578 21.6758C15.0156 20.7773 14.1172 20.0664 13.0625 19.543C12.0078 19.0117 10.8633 18.7461 9.62891 18.7461C8.98828 18.7461 8.35547 18.8281 7.73047 18.9922C7.92578 17.4688 8.37891 16.0508 9.08984 14.7383C9.80078 13.418 10.7109 12.2695 11.8203 11.293C12.9297 10.3086 14.1797 9.54297 15.5703 8.99609C16.9609 8.44141 18.4375 8.16406 20 8.16406C21.6953 8.16406 23.2891 8.48828 24.7812 9.13672C26.2734 9.77734 27.5898 10.668 28.7305 11.8086C29.8711 12.9492 30.7617 14.2656 31.4023 15.7578C32.0508 17.25 32.375 18.8438 32.375 20.5391C32.375 22.2422 32.0508 23.8398 31.4023 25.332C30.7617 26.8242 29.8711 28.1367 28.7305 29.2695C27.5977 30.4102 26.2852 31.3008 24.793 31.9414C23.3008 32.5898 21.7031 32.9141 20 32.9141ZM19.9883 22.3086C20.7539 22.3164 21.4414 22.125 22.0508 21.7344C22.668 21.3359 23.1562 20.8008 23.5156 20.1289C23.875 19.4492 24.0547 18.6914 24.0547 17.8555C24.0547 17.0742 23.8711 16.3516 23.5039 15.6875C23.1445 15.0234 22.6562 14.4922 22.0391 14.0938C21.4297 13.6953 20.7461 13.4961 19.9883 13.4961C19.2305 13.4961 18.543 13.6953 17.9258 14.0938C17.3086 14.4922 16.8203 15.0234 16.4609 15.6875C16.1016 16.3516 15.9219 17.0742 15.9219 17.8555C15.9297 18.6914 16.1094 19.4453 16.4609 20.1172C16.8203 20.7891 17.3047 21.3203 17.9141 21.7109C18.5312 22.1016 19.2227 22.3008 19.9883 22.3086ZM9.65234 32.8438C8.80859 32.8438 8.01172 32.6836 7.26172 32.3633C6.51953 32.043 5.86719 31.5977 5.30469 31.0273C4.73438 30.457 4.28906 29.7969 3.96875 29.0469C3.64062 28.3047 3.47656 27.5117 3.47656 26.668C3.47656 25.8242 3.64062 25.0312 3.96875 24.2891C4.28906 23.5469 4.73438 22.8906 5.30469 22.3203C5.86719 21.75 6.51953 21.3047 7.26172 20.9844C8.01172 20.6641 8.80859 20.5039 9.65234 20.5039C10.4961 20.5039 11.2891 20.6641 12.0312 20.9844C12.7812 21.3047 13.4375 21.75 14 22.3203C14.5703 22.8828 15.0156 23.5391 15.3359 24.2891C15.6562 25.0312 15.8164 25.8242 15.8164 26.668C15.8164 27.5117 15.6562 28.3047 15.3359 29.0469C15.0156 29.7969 14.5703 30.4531 14 31.0156C13.4297 31.5859 12.7695 32.0312 12.0195 32.3516C11.2773 32.6797 10.4883 32.8438 9.65234 32.8438ZM9.65234 30.6641C9.93359 30.6641 10.1602 30.5781 10.332 30.4062C10.5039 30.2344 10.5898 30.0078 10.5898 29.7266V27.6172H12.6992C12.9727 27.6172 13.1953 27.5312 13.3672 27.3594C13.5469 27.1875 13.6367 26.9609 13.6367 26.6797C13.6367 26.3906 13.5469 26.1641 13.3672 26C13.1953 25.8281 12.9727 25.7422 12.6992 25.7422H10.5898V23.6445C10.5898 23.3555 10.5039 23.1289 10.332 22.9648C10.1602 22.793 9.93359 22.707 9.65234 22.707C9.37109 22.707 9.14453 22.793 8.97266 22.9648C8.80078 23.1367 8.71484 23.3633 8.71484 23.6445V25.7422H6.60547C6.32422 25.7422 6.09766 25.8281 5.92578 26C5.75391 26.1641 5.66797 26.3906 5.66797 26.6797C5.66797 26.9609 5.75391 27.1875 5.92578 27.3594C6.10547 27.5312 6.33203 27.6172 6.60547 27.6172H8.71484V29.7266C8.71484 30.0078 8.80078 30.2344 8.97266 30.4062C9.14453 30.5781 9.37109 30.6641 9.65234 30.6641Z" fill="#FFA000"/>
</svg>
