<svg width="56" height="57" viewBox="0 0 56 57" fill="none" xmlns="http://www.w3.org/2000/svg">
<path d="M28 52.5859C24.7812 52.5859 21.75 51.9688 18.9062 50.7344C16.0781 49.5156 13.5781 47.8281 11.4062 45.6719C9.25 43.5 7.55469 41 6.32031 38.1719C5.10156 35.3281 4.49219 32.2969 4.49219 29.0781C4.49219 25.8594 5.10156 22.8359 6.32031 20.0078C7.55469 17.1641 9.25 14.6641 11.4062 12.5078C13.5625 10.3359 16.0547 8.64062 18.8828 7.42188C21.7266 6.1875 24.7578 5.57031 27.9766 5.57031C31.1953 5.57031 34.2266 6.1875 37.0703 7.42188C39.9141 8.64062 42.4141 10.3359 44.5703 12.5078C46.7266 14.6641 48.4219 17.1641 49.6562 20.0078C50.8906 22.8359 51.5078 25.8594 51.5078 29.0781C51.5078 32.2969 50.8906 35.3281 49.6562 38.1719C48.4219 41 46.7266 43.5 44.5703 45.6719C42.4141 47.8281 39.9141 49.5156 37.0703 50.7344C34.2422 51.9688 31.2188 52.5859 28 52.5859ZM28 49.5625C30.8281 49.5625 33.4766 49.0312 35.9453 47.9688C38.4297 46.9062 40.6094 45.4375 42.4844 43.5625C44.375 41.6875 45.8438 39.5156 46.8906 37.0469C47.9531 34.5625 48.4844 31.9062 48.4844 29.0781C48.4844 26.25 47.9531 23.6016 46.8906 21.1328C45.8281 18.6484 44.3594 16.4688 42.4844 14.5938C40.6094 12.7031 38.4297 11.2344 35.9453 10.1875C33.4766 9.125 30.8203 8.59375 27.9766 8.59375C25.1484 8.59375 22.4922 9.125 20.0078 10.1875C17.5391 11.2344 15.3672 12.7031 13.4922 14.5938C11.6328 16.4688 10.1719 18.6484 9.10938 21.1328C8.0625 23.6016 7.53906 26.25 7.53906 29.0781C7.53906 31.9062 8.0625 34.5625 9.10938 37.0469C10.1719 39.5156 11.6406 41.6875 13.5156 43.5625C15.3906 45.4375 17.5625 46.9062 20.0312 47.9688C22.5 49.0312 25.1562 49.5625 28 49.5625ZM28.0703 40.0469C26.2734 40.0469 24.7109 39.6406 23.3828 38.8281C22.0547 38.0156 21.2188 36.9531 20.875 35.6406C20.7969 35.3594 20.7578 35.0938 20.7578 34.8438C20.7578 34.4688 20.875 34.1641 21.1094 33.9297C21.3594 33.6953 21.6719 33.5781 22.0469 33.5781C22.6562 33.5781 23.0781 33.9062 23.3125 34.5625C23.5781 35.4688 24.125 36.2188 24.9531 36.8125C25.7812 37.4062 26.8359 37.7031 28.1172 37.7031C29.6016 37.7031 30.7969 37.3438 31.7031 36.625C32.6094 35.9062 33.0625 34.9609 33.0625 33.7891C33.0625 32.6484 32.6172 31.7109 31.7266 30.9766C30.8359 30.2422 29.6953 29.875 28.3047 29.875H26.4766C26.1328 29.875 25.8516 29.7734 25.6328 29.5703C25.4297 29.3516 25.3281 29.0703 25.3281 28.7266C25.3281 28.3828 25.4297 28.1094 25.6328 27.9062C25.8516 27.6875 26.1328 27.5781 26.4766 27.5781H28.1406C29.3438 27.5781 30.3359 27.2266 31.1172 26.5234C31.9141 25.8203 32.3125 24.9375 32.3125 23.875C32.3125 22.8281 31.9375 21.9922 31.1875 21.3672C30.4375 20.7422 29.4297 20.4297 28.1641 20.4297C26.9922 20.4297 26.0156 20.7188 25.2344 21.2969C24.4688 21.875 23.9766 22.6328 23.7578 23.5703C23.5703 24.2422 23.1484 24.5781 22.4922 24.5781C22.1172 24.5781 21.8125 24.4609 21.5781 24.2266C21.3438 23.9922 21.2266 23.6953 21.2266 23.3359C21.2266 23.1797 21.2344 23.0469 21.25 22.9375C21.2656 22.8125 21.2891 22.6719 21.3203 22.5156C21.5703 21.1875 22.3281 20.125 23.5938 19.3281C24.875 18.5156 26.4062 18.1094 28.1875 18.1094C30.1875 18.1094 31.8281 18.625 33.1094 19.6562C34.4062 20.6719 35.0547 21.9688 35.0547 23.5469C35.0547 24.7812 34.6562 25.875 33.8594 26.8281C33.0625 27.7656 32.0703 28.3359 30.8828 28.5391V28.7031C32.2891 28.8281 33.4609 29.3828 34.3984 30.3672C35.3359 31.3516 35.8047 32.5156 35.8047 33.8594C35.8047 35.6562 35.1016 37.1406 33.6953 38.3125C32.2891 39.4688 30.4141 40.0469 28.0703 40.0469Z" fill="#3F51B5"/>
</svg>
