<svg width="32" height="32" viewBox="0 0 32 32" fill="none" xmlns="http://www.w3.org/2000/svg">
<path d="M15.9922 24.4297C14.888 24.4297 13.849 24.2188 12.875 23.7969C11.901 23.3802 11.0417 22.7995 10.2969 22.0547C9.55729 21.3099 8.97656 20.4505 8.55469 19.4766C8.13281 18.5026 7.92188 17.4635 7.92188 16.3594C7.92188 15.2552 8.13281 14.2161 8.55469 13.2422C8.97656 12.2682 9.55729 11.4115 10.2969 10.6719C11.0417 9.92708 11.8984 9.34375 12.8672 8.92188C13.8411 8.5 14.8802 8.28906 15.9844 8.28906C17.0938 8.28906 18.1354 8.5 19.1094 8.92188C20.0833 9.34375 20.9427 9.92708 21.6875 10.6719C22.4323 11.4115 23.0156 12.2682 23.4375 13.2422C23.8594 14.2161 24.0703 15.2552 24.0703 16.3594C24.0703 17.4635 23.8594 18.5026 23.4375 19.4766C23.0156 20.4505 22.4323 21.3099 21.6875 22.0547C20.9427 22.7995 20.0833 23.3802 19.1094 23.7969C18.1354 24.2188 17.0964 24.4297 15.9922 24.4297ZM15.9922 22.8359C16.8932 22.8359 17.7344 22.6693 18.5156 22.3359C19.2969 22.0026 19.9844 21.5391 20.5781 20.9453C21.1719 20.3516 21.6354 19.6641 21.9688 18.8828C22.3021 18.1016 22.4688 17.2604 22.4688 16.3594C22.4688 15.4635 22.3021 14.625 21.9688 13.8438C21.6354 13.0573 21.1719 12.3672 20.5781 11.7734C19.9844 11.1797 19.2943 10.7161 18.5078 10.3828C17.7266 10.0495 16.8854 9.88281 15.9844 9.88281C15.0885 9.88281 14.2474 10.0495 13.4609 10.3828C12.6797 10.7161 11.9948 11.1797 11.4062 11.7734C10.8177 12.3672 10.3568 13.0573 10.0234 13.8438C9.6901 14.625 9.52344 15.4635 9.52344 16.3594C9.52344 17.2604 9.6901 18.1016 10.0234 18.8828C10.3568 19.6641 10.8177 20.3516 11.4062 20.9453C12 21.5391 12.6875 22.0026 13.4688 22.3359C14.2552 22.6693 15.0964 22.8359 15.9922 22.8359ZM21.2031 21.5156C20.7083 21.9688 20.151 22.349 19.5312 22.6562C18.9115 22.9688 18.2917 23.2057 17.6719 23.3672C17.0521 23.5286 16.4922 23.6094 15.9922 23.6094C15.4974 23.6094 14.9375 23.5286 14.3125 23.3672C13.6927 23.2057 13.0729 22.9688 12.4531 22.6562C11.8333 22.349 11.2786 21.9688 10.7891 21.5156L10.8203 21.375C10.987 20.9948 11.3047 20.6276 11.7734 20.2734C12.2474 19.9141 12.8438 19.6224 13.5625 19.3984C14.2812 19.1693 15.0911 19.0547 15.9922 19.0547C16.9036 19.0547 17.7161 19.1693 18.4297 19.3984C19.1484 19.6224 19.7422 19.9141 20.2109 20.2734C20.6849 20.6276 21.0052 20.9974 21.1719 21.3828L21.2031 21.5156ZM15.9922 17.7656C15.4922 17.7604 15.0391 17.6302 14.6328 17.375C14.2266 17.1146 13.9036 16.763 13.6641 16.3203C13.4297 15.8724 13.3099 15.3698 13.3047 14.8125C13.2995 14.2917 13.4167 13.8125 13.6562 13.375C13.8958 12.9323 14.2188 12.5781 14.625 12.3125C15.0365 12.0469 15.4922 11.9141 15.9922 11.9141C16.4974 11.9141 16.9505 12.0469 17.3516 12.3125C17.7578 12.5781 18.0807 12.9323 18.3203 13.375C18.5651 13.8125 18.6875 14.2917 18.6875 14.8125C18.6875 15.3698 18.5677 15.875 18.3281 16.3281C18.0885 16.776 17.7656 17.1302 17.3594 17.3906C16.9531 17.6458 16.4974 17.7708 15.9922 17.7656Z" fill="#B7B7B7"/>
</svg>
