<svg width="34" height="40" viewBox="0 0 34 40" fill="none" xmlns="http://www.w3.org/2000/svg">
<path d="M1.69531 21.6289C1.69531 21.3919 1.73633 21.1732 1.81836 20.9727C1.90951 20.7721 2.04622 20.5807 2.22852 20.3984L12.8789 9.98047C13.1888 9.67969 13.5625 9.5293 14 9.5293C14.3008 9.5293 14.5697 9.60221 14.8066 9.74805C15.0527 9.88477 15.2487 10.0716 15.3945 10.3086C15.5404 10.5456 15.6133 10.8145 15.6133 11.1152C15.6133 11.5436 15.4447 11.9264 15.1074 12.2637L5.50977 21.6289L15.1074 30.9941C15.4447 31.3314 15.6133 31.7188 15.6133 32.1562C15.6133 32.4479 15.5404 32.7122 15.3945 32.9492C15.2487 33.1953 15.0527 33.3867 14.8066 33.5234C14.5697 33.6693 14.3008 33.7422 14 33.7422C13.5625 33.7422 13.1888 33.5872 12.8789 33.2773L2.22852 22.8594C2.04622 22.6771 1.90951 22.4857 1.81836 22.2852C1.73633 22.0846 1.69531 21.8659 1.69531 21.6289Z" fill="black" fill-opacity="0.87"/>
</svg>
