<svg width="56" height="57" viewBox="0 0 56 57" fill="none" xmlns="http://www.w3.org/2000/svg">
<path d="M28 52.5859C24.7812 52.5859 21.75 51.9688 18.9062 50.7344C16.0781 49.5156 13.5781 47.8281 11.4062 45.6719C9.25 43.5 7.55469 41 6.32031 38.1719C5.10156 35.3281 4.49219 32.2969 4.49219 29.0781C4.49219 25.8594 5.10156 22.8359 6.32031 20.0078C7.55469 17.1641 9.25 14.6641 11.4062 12.5078C13.5625 10.3359 16.0547 8.64062 18.8828 7.42188C21.7266 6.1875 24.7578 5.57031 27.9766 5.57031C31.1953 5.57031 34.2266 6.1875 37.0703 7.42188C39.9141 8.64062 42.4141 10.3359 44.5703 12.5078C46.7266 14.6641 48.4219 17.1641 49.6562 20.0078C50.8906 22.8359 51.5078 25.8594 51.5078 29.0781C51.5078 32.2969 50.8906 35.3281 49.6562 38.1719C48.4219 41 46.7266 43.5 44.5703 45.6719C42.4141 47.8281 39.9141 49.5156 37.0703 50.7344C34.2422 51.9688 31.2188 52.5859 28 52.5859ZM28 49.5625C30.8281 49.5625 33.4766 49.0312 35.9453 47.9688C38.4297 46.9062 40.6094 45.4375 42.4844 43.5625C44.375 41.6875 45.8438 39.5156 46.8906 37.0469C47.9531 34.5625 48.4844 31.9062 48.4844 29.0781C48.4844 26.25 47.9531 23.6016 46.8906 21.1328C45.8281 18.6484 44.3594 16.4688 42.4844 14.5938C40.6094 12.7031 38.4297 11.2344 35.9453 10.1875C33.4766 9.125 30.8203 8.59375 27.9766 8.59375C25.1484 8.59375 22.4922 9.125 20.0078 10.1875C17.5391 11.2344 15.3672 12.7031 13.4922 14.5938C11.6328 16.4688 10.1719 18.6484 9.10938 21.1328C8.0625 23.6016 7.53906 26.25 7.53906 29.0781C7.53906 31.9062 8.0625 34.5625 9.10938 37.0469C10.1719 39.5156 11.6406 41.6875 13.5156 43.5625C15.3906 45.4375 17.5625 46.9062 20.0312 47.9688C22.5 49.0312 25.1562 49.5625 28 49.5625ZM22.7266 39.6016C22.3047 39.6016 21.9766 39.4922 21.7422 39.2734C21.5078 39.0391 21.3906 38.7344 21.3906 38.3594C21.3906 38.1562 21.4297 37.9688 21.5078 37.7969C21.5859 37.6094 21.7109 37.4219 21.8828 37.2344L29.5938 28.8203C30.3594 28.0078 31.0078 27.2188 31.5391 26.4531C32.0703 25.6875 32.3359 24.8828 32.3359 24.0391C32.3359 22.9609 31.9609 22.1016 31.2109 21.4609C30.4766 20.8047 29.4844 20.4766 28.2344 20.4766C26.9844 20.4766 25.9844 20.8125 25.2344 21.4844C24.4844 22.1562 23.9922 22.9453 23.7578 23.8516C23.6172 24.1328 23.4453 24.3672 23.2422 24.5547C23.0547 24.7266 22.7891 24.8125 22.4453 24.8125C22.0703 24.8125 21.7734 24.7031 21.5547 24.4844C21.3359 24.2656 21.2266 23.9688 21.2266 23.5938C21.2266 23.4688 21.2344 23.3438 21.25 23.2188C21.2656 23.0781 21.2969 22.9297 21.3438 22.7734C21.6562 21.4297 22.4531 20.3203 23.7344 19.4453C25.0156 18.5547 26.4766 18.1094 28.1172 18.1094C30.1797 18.1094 31.8281 18.6406 33.0625 19.7031C34.3125 20.75 34.9375 22.1406 34.9375 23.875C34.9375 25.0469 34.6328 26.1328 34.0234 27.1328C33.4297 28.1328 32.5859 29.2266 31.4922 30.4141L25.375 37.0234V37.1641H34.7266C35.0703 37.1641 35.3516 37.2734 35.5703 37.4922C35.8047 37.7109 35.9219 38.0078 35.9219 38.3828C35.9219 38.7578 35.8047 39.0547 35.5703 39.2734C35.3516 39.4922 35.0703 39.6016 34.7266 39.6016H22.7266Z" fill="#3F51B5"/>
</svg>
