<svg width="32" height="32" viewBox="0 0 32 32" fill="none" xmlns="http://www.w3.org/2000/svg">
<path d="M8.17188 10.3594C8.17188 9.92188 8.30208 9.57812 8.5625 9.32812C8.82812 9.07812 9.1849 8.95312 9.63281 8.95312H11.1172C11.2005 8.54688 11.388 8.23177 11.6797 8.00781C11.9766 7.77865 12.3672 7.66406 12.8516 7.66406H19.1406C19.6302 7.66406 20.0208 7.77865 20.3125 8.00781C20.6042 8.23177 20.7917 8.54688 20.875 8.95312H22.3594C22.8073 8.95312 23.1615 9.07812 23.4219 9.32812C23.6875 9.57812 23.8203 9.92188 23.8203 10.3594C23.8203 11.4167 23.6458 12.3516 23.2969 13.1641C22.9479 13.9714 22.4271 14.6589 21.7344 15.2266C21.0417 15.7891 20.1797 16.2318 19.1484 16.5547C18.9453 16.8099 18.7292 17.0443 18.5 17.2578C18.276 17.4714 18.0521 17.6562 17.8281 17.8125V20.9688H18.7344C19.2969 20.9688 19.7266 21.125 20.0234 21.4375C20.3203 21.7448 20.4688 22.1641 20.4688 22.6953V24.3438C20.4688 24.5521 20.3984 24.7214 20.2578 24.8516C20.1172 24.9818 19.9479 25.0469 19.75 25.0469H12.2344C12.0417 25.0469 11.875 24.9818 11.7344 24.8516C11.5938 24.7214 11.5234 24.5521 11.5234 24.3438V22.6953C11.5234 22.1641 11.6719 21.7448 11.9688 21.4375C12.2656 21.125 12.6927 20.9688 13.25 20.9688H14.1641V17.8047C13.9401 17.6484 13.7161 17.4661 13.4922 17.2578C13.2682 17.0443 13.0547 16.8099 12.8516 16.5547C11.8151 16.2318 10.9505 15.7891 10.2578 15.2266C9.5651 14.6589 9.04427 13.9714 8.69531 13.1641C8.34635 12.3516 8.17188 11.4167 8.17188 10.3594ZM9.47656 10.5391C9.47656 11.5391 9.66927 12.3906 10.0547 13.0938C10.4401 13.7969 11.0052 14.3438 11.75 14.7344C11.5365 14.2969 11.3672 13.8281 11.2422 13.3281C11.1172 12.8281 11.0547 12.3073 11.0547 11.7656V10.3203H9.69531C9.63281 10.3203 9.58073 10.3438 9.53906 10.3906C9.4974 10.4323 9.47656 10.4818 9.47656 10.5391ZM12.4609 11.9844C12.4609 12.5365 12.5495 13.0677 12.7266 13.5781C12.9036 14.0885 13.1302 14.5599 13.4062 14.9922C13.6875 15.4245 13.9896 15.8021 14.3125 16.125C14.6354 16.4479 14.9453 16.7005 15.2422 16.8828C15.5391 17.0599 15.7891 17.1484 15.9922 17.1484C16.2005 17.1484 16.4531 17.0599 16.75 16.8828C17.0469 16.7005 17.3568 16.4479 17.6797 16.125C18.0026 15.8021 18.3021 15.4245 18.5781 14.9922C18.8594 14.5599 19.0885 14.0885 19.2656 13.5781C19.4427 13.0677 19.5312 12.5365 19.5312 11.9844V9.52344C19.5312 9.38802 19.4896 9.27865 19.4062 9.19531C19.3229 9.11198 19.2135 9.07031 19.0781 9.07031H12.9141C12.7786 9.07031 12.6693 9.11198 12.5859 9.19531C12.5026 9.27865 12.4609 9.38802 12.4609 9.52344V11.9844ZM12.9297 23.6406H19.0625V22.8125C19.0625 22.6823 19.0208 22.5755 18.9375 22.4922C18.8594 22.4141 18.7526 22.375 18.6172 22.375H13.3672C13.237 22.375 13.1302 22.4141 13.0469 22.4922C12.9688 22.5755 12.9297 22.6823 12.9297 22.8125V23.6406ZM15.5078 20.9688H16.4844V18.4766C16.3125 18.5234 16.1484 18.5469 15.9922 18.5469C15.8411 18.5469 15.6797 18.5234 15.5078 18.4766V20.9688ZM20.2422 14.7344C20.987 14.3438 21.5521 13.7969 21.9375 13.0938C22.3229 12.3906 22.5156 11.5391 22.5156 10.5391C22.5156 10.4818 22.4948 10.4323 22.4531 10.3906C22.4115 10.3438 22.3594 10.3203 22.2969 10.3203H20.9375V11.7656C20.9375 12.3073 20.8724 12.8281 20.7422 13.3281C20.6172 13.8281 20.4505 14.2969 20.2422 14.7344Z" fill="#B7B7B7"/>
</svg>
