<svg width="32" height="32" viewBox="0 0 32 32" fill="none" xmlns="http://www.w3.org/2000/svg">
<path d="M8.17188 10.3594C8.17188 9.92188 8.30208 9.57812 8.5625 9.32812C8.82812 9.07812 9.1849 8.95312 9.63281 8.95312H11.1172C11.2005 8.54688 11.388 8.23177 11.6797 8.00781C11.9766 7.77865 12.3672 7.66406 12.8516 7.66406H19.1406C19.6302 7.66406 20.0208 7.77865 20.3125 8.00781C20.6042 8.23177 20.7917 8.54688 20.875 8.95312H22.3594C22.8073 8.95312 23.1615 9.07812 23.4219 9.32812C23.6875 9.57812 23.8203 9.92188 23.8203 10.3594C23.8203 11.4167 23.6458 12.3516 23.2969 13.1641C22.9479 13.9714 22.4245 14.6589 21.7266 15.2266C21.0339 15.7891 20.1693 16.2318 19.1328 16.5547C18.8828 16.8672 18.6198 17.1484 18.3438 17.3984C18.0677 17.6484 17.7917 17.862 17.5156 18.0391V21.2812H18.7344C19.2969 21.2812 19.7266 21.4375 20.0234 21.75C20.3203 22.0573 20.4688 22.4792 20.4688 23.0156V24.3438C20.4688 24.5521 20.3984 24.7214 20.2578 24.8516C20.1172 24.9818 19.9479 25.0469 19.75 25.0469H12.2344C12.0417 25.0469 11.875 24.9818 11.7344 24.8516C11.5938 24.7214 11.5234 24.5521 11.5234 24.3438V23.0156C11.5234 22.4792 11.6719 22.0573 11.9688 21.75C12.2656 21.4375 12.6927 21.2812 13.25 21.2812H14.4766V18.0391C14.2005 17.862 13.9245 17.6484 13.6484 17.3984C13.3724 17.1484 13.1068 16.8672 12.8516 16.5547C11.8151 16.2318 10.9505 15.7891 10.2578 15.2266C9.5651 14.6589 9.04427 13.9714 8.69531 13.1641C8.34635 12.3516 8.17188 11.4167 8.17188 10.3594ZM9.47656 10.5391C9.47656 11.5391 9.66927 12.3906 10.0547 13.0938C10.4401 13.7969 11.0052 14.3464 11.75 14.7422C11.5365 14.2995 11.3672 13.8281 11.2422 13.3281C11.1172 12.8281 11.0547 12.3073 11.0547 11.7656V10.3203H9.69531C9.63281 10.3203 9.58073 10.3438 9.53906 10.3906C9.4974 10.4323 9.47656 10.4818 9.47656 10.5391ZM20.2422 14.7422C20.987 14.3464 21.5521 13.7969 21.9375 13.0938C22.3229 12.3906 22.5156 11.5391 22.5156 10.5391C22.5156 10.4818 22.4948 10.4323 22.4531 10.3906C22.4115 10.3438 22.3594 10.3203 22.2969 10.3203H20.9375V11.7656C20.9375 12.3073 20.8724 12.8281 20.7422 13.3281C20.6172 13.8281 20.4505 14.2995 20.2422 14.7422Z" fill="#3F51B5"/>
</svg>
