<svg width="64" height="64" viewBox="0 0 64 64" fill="none" xmlns="http://www.w3.org/2000/svg">
<path d="M9.07812 11.125C9.07812 9.90625 9.42969 8.95312 10.1328 8.26562C10.8516 7.57813 11.8359 7.23438 13.0859 7.23438H17.6328C17.8203 6.03125 18.3281 5.09375 19.1562 4.42188C20 3.73438 21.125 3.39062 22.5312 3.39062H41.4688C42.8906 3.39062 44.0156 3.73438 44.8438 4.42188C45.6719 5.09375 46.1797 6.03125 46.3672 7.23438H50.9141C52.1641 7.23438 53.1406 7.57813 53.8438 8.26562C54.5625 8.95312 54.9219 9.90625 54.9219 11.125C54.9219 14.3437 54.4062 17.1719 53.375 19.6094C52.3438 22.0312 50.7969 24.0781 48.7344 25.75C46.6875 27.4219 44.125 28.7344 41.0469 29.6875C40.4375 30.4531 39.7891 31.1484 39.1016 31.7734C38.4297 32.3828 37.7656 32.9062 37.1094 33.3438V43.3984H39.9922C41.6484 43.3984 42.8984 43.8438 43.7422 44.7344C44.6016 45.625 45.0312 46.8516 45.0312 48.4141V52.9844C45.0312 53.5156 44.8516 53.9453 44.4922 54.2734C44.1328 54.6016 43.7109 54.7656 43.2266 54.7656H20.7734C20.2891 54.7656 19.8672 54.6016 19.5078 54.2734C19.1484 53.9453 18.9688 53.5156 18.9688 52.9844V48.4141C18.9688 46.8516 19.3906 45.625 20.2344 44.7344C21.0938 43.8438 22.3438 43.3984 23.9844 43.3984H26.8906V33.3203C26.2344 32.8828 25.5703 32.3594 24.8984 31.75C24.2266 31.1406 23.5859 30.4531 22.9766 29.6875C19.8828 28.7344 17.3047 27.4219 15.2422 25.75C13.1953 24.0781 11.6562 22.0312 10.625 19.6094C9.59375 17.1719 9.07812 14.3437 9.07812 11.125ZM12.4297 11.4531C12.4297 14.7969 13.0625 17.6094 14.3281 19.8906C15.5938 22.1719 17.4531 23.9219 19.9062 25.1406C19.1875 23.7188 18.6094 22.1875 18.1719 20.5469C17.7344 18.8906 17.5156 17.1641 17.5156 15.3672V10.7734H13.1094C12.9062 10.7734 12.7422 10.8438 12.6172 10.9844C12.4922 11.1094 12.4297 11.2656 12.4297 11.4531ZM21.0547 16.0234C21.0547 17.6953 21.3203 19.3125 21.8516 20.875C22.3984 22.4219 23.1016 23.8594 23.9609 25.1875C24.8203 26.5156 25.7422 27.6797 26.7266 28.6797C27.7266 29.6797 28.6875 30.4609 29.6094 31.0234C30.5469 31.5703 31.3438 31.8438 32 31.8438C32.6562 31.8438 33.4453 31.5703 34.3672 31.0234C35.3047 30.4609 36.2656 29.6797 37.25 28.6797C38.25 27.6797 39.1797 26.5156 40.0391 25.1875C40.8984 23.8594 41.5938 22.4219 42.125 20.875C42.6719 19.3125 42.9453 17.6953 42.9453 16.0234V8.40625C42.9453 7.96875 42.8047 7.61719 42.5234 7.35156C42.2578 7.07031 41.9062 6.92969 41.4688 6.92969H22.5312C22.0938 6.92969 21.7344 7.07031 21.4531 7.35156C21.1875 7.61719 21.0547 7.96875 21.0547 8.40625V16.0234ZM22.5078 51.2266H41.4922V48.4141C41.4922 47.9609 41.3516 47.6016 41.0703 47.3359C40.8047 47.0703 40.4453 46.9375 39.9922 46.9375H23.9844C23.5469 46.9375 23.1875 47.0703 22.9062 47.3359C22.6406 47.6016 22.5078 47.9609 22.5078 48.4141V51.2266ZM30.4297 43.3984H33.5703V35.125C33.0234 35.2812 32.5 35.3594 32 35.3594C31.5 35.3594 30.9766 35.2812 30.4297 35.125V43.3984ZM44.0938 25.1406C46.5469 23.9219 48.4062 22.1719 49.6719 19.8906C50.9375 17.6094 51.5703 14.7969 51.5703 11.4531C51.5703 11.2656 51.5078 11.1094 51.3828 10.9844C51.2578 10.8438 51.0938 10.7734 50.8906 10.7734H46.4844V15.3672C46.4844 17.1641 46.2656 18.8906 45.8281 20.5469C45.3906 22.1875 44.8125 23.7188 44.0938 25.1406Z" fill="#FFA000"/>
<circle cx="46.5" cy="49.5" r="10.5" fill="#F5F6F6"/>
<path d="M46.4883 61.9141C44.793 61.9141 43.1992 61.5898 41.707 60.9414C40.2148 60.3008 38.8984 59.4102 37.7578 58.2695C36.6172 57.1367 35.7227 55.8242 35.0742 54.332C34.4336 52.8398 34.1133 51.2422 34.1133 49.5391C34.1133 47.8438 34.4336 46.25 35.0742 44.7578C35.7227 43.2656 36.6133 41.9492 37.7461 40.8086C38.8867 39.668 40.2031 38.7773 41.6953 38.1367C43.1953 37.4883 44.793 37.1641 46.4883 37.1641C48.1836 37.1641 49.7773 37.4883 51.2695 38.1367C52.7695 38.7773 54.0859 39.668 55.2188 40.8086C56.3594 41.9492 57.2539 43.2656 57.9023 44.7578C58.5508 46.25 58.875 47.8438 58.875 49.5391C58.875 51.2422 58.5508 52.8398 57.9023 54.332C57.2539 55.8242 56.3594 57.1367 55.2188 58.2695C54.0859 59.4102 52.7734 60.3008 51.2812 60.9414C49.7891 61.5898 48.1914 61.9141 46.4883 61.9141ZM46.4883 58.832C47.7773 58.832 48.9844 58.5898 50.1094 58.1055C51.2344 57.6289 52.2227 56.9688 53.0742 56.125C53.9258 55.2734 54.5898 54.2852 55.0664 53.1602C55.5508 52.0352 55.793 50.8281 55.793 49.5391C55.793 48.25 55.5508 47.0469 55.0664 45.9297C54.582 44.8047 53.9141 43.8164 53.0625 42.9648C52.2188 42.1133 51.2344 41.4492 50.1094 40.9727C48.9844 40.4883 47.7773 40.2461 46.4883 40.2461C45.1992 40.2461 43.9922 40.4883 42.8672 40.9727C41.75 41.4492 40.7656 42.1133 39.9141 42.9648C39.0625 43.8164 38.3984 44.8047 37.9219 45.9297C37.4453 47.0469 37.207 48.25 37.207 49.5391C37.207 50.8281 37.4453 52.0352 37.9219 53.1602C38.3984 54.2852 39.0625 55.2734 39.9141 56.125C40.7656 56.9688 41.7539 57.6289 42.8789 58.1055C44.0039 58.5898 45.207 58.832 46.4883 58.832ZM47.2148 55C46.7773 55 46.4297 54.875 46.1719 54.625C45.9141 54.3672 45.7852 53.9805 45.7852 53.4648V46.8906H45.6797L44.4727 47.6875C44.3008 47.8047 44.1641 47.8789 44.0625 47.9102C43.9609 47.9414 43.8477 47.957 43.7227 47.957C43.4414 47.957 43.2109 47.8594 43.0312 47.6641C42.8516 47.4688 42.7617 47.2305 42.7617 46.9492C42.7617 46.5352 42.9609 46.1992 43.3594 45.9414L45.2578 44.6758C45.875 44.2695 46.4688 44.0664 47.0391 44.0664C47.5312 44.0664 47.9258 44.207 48.2227 44.4883C48.5195 44.7695 48.668 45.1406 48.668 45.6016V53.4648C48.668 53.9805 48.5352 54.3672 48.2695 54.625C48.0039 54.875 47.6523 55 47.2148 55Z" fill="#FFA000"/>
</svg>
