<svg width="32" height="32" viewBox="0 0 32 32" fill="none" xmlns="http://www.w3.org/2000/svg">
<path d="M8.28125 14.9375C8.28125 14.0625 8.44531 13.2422 8.77344 12.4766C9.10677 11.7057 9.5651 11.0286 10.1484 10.4453C10.7318 9.85677 11.4062 9.39844 12.1719 9.07031C12.9427 8.74219 13.7656 8.57812 14.6406 8.57812C15.5208 8.57812 16.3438 8.74219 17.1094 9.07031C17.8802 9.39844 18.5573 9.85677 19.1406 10.4453C19.724 11.0286 20.1797 11.7057 20.5078 12.4766C20.8411 13.2422 21.0078 14.0625 21.0078 14.9375C21.0078 15.625 20.901 16.2786 20.6875 16.8984C20.4792 17.5182 20.1901 18.0833 19.8203 18.5938L23.3828 22.1719C23.4922 22.276 23.5729 22.3984 23.625 22.5391C23.6823 22.6797 23.7109 22.8281 23.7109 22.9844C23.7109 23.2031 23.6615 23.401 23.5625 23.5781C23.4635 23.7552 23.3281 23.8932 23.1562 23.9922C22.9844 24.0964 22.7865 24.1484 22.5625 24.1484C22.4062 24.1484 22.2552 24.1198 22.1094 24.0625C21.9688 24.0104 21.8411 23.9271 21.7266 23.8125L18.1406 20.2266C17.6406 20.5599 17.0938 20.8229 16.5 21.0156C15.9115 21.2031 15.2917 21.2969 14.6406 21.2969C13.7656 21.2969 12.9427 21.1328 12.1719 20.8047C11.4062 20.4766 10.7318 20.0208 10.1484 19.4375C9.5651 18.8542 9.10677 18.1797 8.77344 17.4141C8.44531 16.6432 8.28125 15.8177 8.28125 14.9375ZM9.94531 14.9375C9.94531 15.5885 10.0651 16.1979 10.3047 16.7656C10.5495 17.3333 10.888 17.8333 11.3203 18.2656C11.7526 18.6927 12.2526 19.0286 12.8203 19.2734C13.388 19.5182 13.9948 19.6406 14.6406 19.6406C15.2917 19.6406 15.901 19.5182 16.4688 19.2734C17.0365 19.0286 17.5339 18.6927 17.9609 18.2656C18.3932 17.8333 18.7318 17.3333 18.9766 16.7656C19.2214 16.1979 19.3438 15.5885 19.3438 14.9375C19.3438 14.2917 19.2214 13.6849 18.9766 13.1172C18.7318 12.5495 18.3932 12.0495 17.9609 11.6172C17.5339 11.1849 17.0365 10.849 16.4688 10.6094C15.901 10.3646 15.2917 10.2422 14.6406 10.2422C13.9948 10.2422 13.388 10.3646 12.8203 10.6094C12.2526 10.849 11.7526 11.1849 11.3203 11.6172C10.888 12.0495 10.5495 12.5495 10.3047 13.1172C10.0651 13.6849 9.94531 14.2917 9.94531 14.9375Z" fill="#3F51B5"/>
</svg>
